<svg version="1.1" id="Layer_1" xmlns="http://www.w3.org/2000/svg" xmlns:xlink="http://www.w3.org/1999/xlink" x="0px" y="0px"
	 width="100%" viewBox="0 0 512 512" enable-background="new 0 0 512 512" xml:space="preserve">
<path fill="#FFFFFF" opacity="1.000000" stroke="none" 
	d="
M513.000000,112.000000 
	C513.000000,213.020889 513.000000,314.041779 512.662109,415.424622 
	C507.416931,410.999817 500.616638,410.444763 498.597107,415.186768 
	C496.660034,419.735107 495.875275,424.845215 495.085144,429.788513 
	C494.457489,433.715118 497.380310,436.069305 500.601929,436.818329 
	C503.900726,437.585327 507.645630,437.429352 509.316864,433.268097 
	C510.555786,430.183228 511.773102,427.089691 513.000000,424.000000 
	C513.000000,453.638184 513.000000,483.276367 513.000000,513.000000 
	C390.979126,513.000000 268.958221,513.000000 146.666901,512.631592 
	C149.824677,511.832764 153.264923,511.481049 156.679077,510.958649 
	C173.685684,508.356476 189.984375,503.739624 204.355133,493.818359 
	C214.289581,486.959839 218.584900,471.497192 213.141342,461.913086 
	C211.976181,459.829468 211.106506,457.842957 209.733383,456.306305 
	C200.398361,445.859741 187.919083,441.234192 175.031860,437.467712 
	C182.891144,428.201202 190.842789,419.429108 198.199203,410.183441 
	C215.205566,388.809448 230.104095,366.174805 240.214355,340.546021 
	C250.687973,313.996155 255.860306,286.775208 250.826996,258.463165 
	C245.393402,227.899551 230.556702,202.512497 206.310242,182.776184 
	C193.766586,172.565811 179.839523,164.898804 164.475250,160.121826 
	C148.079285,155.024094 131.175446,153.634598 113.636703,155.093216 
	C105.736328,156.559402 98.106766,157.592117 90.799423,159.727509 
	C64.698669,167.354858 43.475346,182.302765 26.801287,203.717651 
	C17.079889,216.203079 9.861182,230.001465 5.916018,245.377502 
	C4.079733,252.534286 2.626740,259.789429 0.999999,267.000000 
	C1.000000,178.391693 1.000000,89.783386 1.000000,1.000000 
	C133.687515,1.000000 266.375092,1.000000 399.524536,1.242138 
	C399.986420,1.484276 399.901855,1.961307 399.483521,1.977431 
	C393.813873,3.099622 388.339508,3.594189 383.348541,5.414252 
	C357.350830,14.894772 337.716034,31.548981 325.521942,56.815651 
	C316.263916,75.998726 313.936310,96.074295 317.173065,116.730743 
	C320.760162,139.622879 330.221985,160.475998 343.220581,179.422958 
	C352.639008,193.151443 363.678192,205.768005 373.659546,219.047989 
	C372.399261,219.529190 371.454559,219.794952 370.551971,220.163788 
	C361.380310,223.911850 352.102448,227.518066 346.659576,237.149200 
	C340.195068,250.225189 347.057129,260.512268 357.483856,267.016388 
	C370.417236,275.084137 384.835449,278.245209 399.986389,279.276062 
	C400.390991,279.598419 400.687561,279.691895 401.449707,279.849060 
	C410.614258,279.870514 419.313232,279.828278 428.264893,279.809631 
	C428.719391,279.570953 428.921204,279.308716 429.562927,279.024567 
	C433.090790,278.663177 436.189270,278.399139 439.264923,277.971130 
	C452.833801,276.082825 465.552185,271.975098 476.674988,263.651093 
	C483.891479,258.250458 486.649597,244.717621 481.995911,236.607315 
	C481.434113,235.460938 480.964569,234.604782 480.348633,233.871628 
	C473.653992,225.903015 464.490112,222.093094 455.105957,218.560638 
	C464.345734,207.115860 474.070435,196.412384 482.436951,184.735733 
	C494.403625,168.034622 503.644531,149.781158 508.928375,129.761368 
	C510.477570,123.891594 511.653168,117.923195 513.000000,112.000000 
M471.537445,344.998413 
	C465.097931,347.750000 463.703613,353.193542 468.660065,357.998596 
	C471.416168,360.670593 474.897400,362.682465 478.272034,364.605469 
	C482.132629,366.805481 486.710022,365.877045 488.657379,362.652069 
	C490.957245,358.843170 490.842712,354.858032 487.335205,351.982819 
	C483.841858,349.119171 479.849915,346.828766 475.917358,344.563477 
	C475.067139,344.073730 473.537201,344.763977 471.537445,344.998413 
M288.455139,464.000000 
	C286.625092,464.002777 284.778473,463.847656 282.968140,464.037933 
	C277.479248,464.614868 274.694794,467.914856 275.001038,473.279663 
	C275.234833,477.376343 278.557861,479.983582 283.585205,479.997986 
	C286.912567,480.007538 290.249054,480.154205 293.565369,479.962097 
	C299.351715,479.626862 302.384247,474.289795 300.030396,469.048767 
	C297.879791,464.260345 293.785950,463.854095 288.455139,464.000000 
M477.790375,467.991180 
	C485.549194,467.626770 490.211212,462.377350 493.806335,456.611603 
	C496.686462,451.992432 492.141754,445.314392 486.733765,446.259247 
	C482.918518,446.925812 479.382202,449.793701 475.973572,452.058441 
	C468.598206,456.958893 469.110535,463.863586 477.790375,467.991180 
M354.899750,469.493378 
	C352.710815,473.606628 354.745728,477.427460 358.068481,478.221466 
	C363.402344,479.496002 369.223755,479.418976 374.759796,478.958740 
	C379.964111,478.526093 380.506622,473.940491 379.860809,469.944855 
	C379.278992,466.344849 376.783661,463.934723 372.668365,463.991119 
	C369.358765,464.036499 366.042236,464.123383 362.739410,463.967377 
	C359.009552,463.791290 356.415619,465.189941 354.899750,469.493378 
M288.735565,262.710785 
	C289.947174,258.356323 288.792511,254.249542 284.786163,252.723068 
	C282.252869,251.757874 278.121674,252.541992 275.777771,254.125824 
	C272.651337,256.238464 270.232147,259.675232 268.125977,262.941040 
	C266.086090,266.104126 265.773346,270.607208 270.289337,273.747620 
	C273.890320,276.251801 277.649963,275.584167 280.548950,272.776550 
	C283.445007,269.971771 285.688477,266.493195 288.735565,262.710785 
M367.000183,351.999542 
	C371.247559,351.700958 373.642059,349.318359 373.946381,345.191956 
	C374.248047,341.101624 373.228455,337.381042 368.344757,336.849762 
	C363.796082,336.354889 359.144470,335.896027 354.624512,336.326965 
	C350.823303,336.689392 347.705017,341.480011 348.059265,344.877258 
	C348.504730,349.149475 351.810486,351.924072 356.619232,351.991516 
	C359.778503,352.035828 362.938934,351.999939 367.000183,351.999542 
M505.964569,375.456421 
	C500.813812,370.838867 494.519653,372.453033 493.027405,379.199097 
	C491.593384,385.681824 495.029358,391.157135 498.703979,395.989044 
	C501.946106,400.252197 509.226746,398.436401 510.996552,393.240082 
	C513.267761,386.571686 508.891876,381.528839 505.964569,375.456421 
M397.149506,465.320557 
	C392.723145,469.879395 392.777313,475.709534 397.377380,478.058228 
	C403.112946,480.986633 409.299103,481.007874 414.972900,478.672729 
	C417.244232,477.737915 419.631317,473.949829 419.615936,471.475067 
	C419.600525,469.000214 416.902069,464.698151 414.937744,464.429596 
	C409.341858,463.664490 403.520905,464.545654 397.149506,465.320557 
M412.572266,348.892731 
	C414.698914,341.797180 412.726715,337.007629 406.819885,336.142242 
	C403.083740,335.594940 399.106384,335.507812 395.415344,336.185089 
	C391.978577,336.815704 387.808533,338.365112 388.218994,342.813385 
	C388.481506,345.658081 390.230988,350.113617 392.256134,350.724854 
	C398.730072,352.678802 405.696289,353.833679 412.572266,348.892731 
M304.794739,239.974365 
	C299.805756,241.457962 299.424286,245.583496 300.169281,249.492050 
	C300.903259,253.342545 303.746735,255.388184 308.057678,255.050674 
	C311.348511,254.793030 314.687775,255.175522 317.983002,254.947845 
	C322.122650,254.661835 326.179169,250.793777 325.774536,247.108490 
	C325.380005,243.514618 323.768799,239.641144 319.784271,239.214615 
	C315.138824,238.717377 310.350647,239.553940 304.794739,239.974365 
M276.448975,337.958038 
	C279.552856,339.981079 282.486755,342.366333 285.808472,343.925232 
	C289.119873,345.479218 292.703613,344.770477 294.669098,341.486511 
	C296.683990,338.120056 297.335876,334.357758 293.758667,331.255524 
	C291.534760,329.326935 289.310089,327.397064 287.031830,325.533752 
	C283.049805,322.276947 277.128296,322.060272 274.527252,325.021271 
	C271.910919,327.999664 272.585693,333.960449 276.448975,337.958038 
M245.762085,464.000000 
	C244.180740,464.310730 242.586685,464.568207 241.020477,464.942352 
	C236.552887,466.009521 234.856964,469.562469 235.339142,473.393158 
	C235.854675,477.488770 238.315765,480.552887 243.400116,480.056427 
	C246.523239,479.751495 249.712524,479.825043 252.850357,480.042419 
	C257.198456,480.343628 259.844147,478.058197 260.880402,474.338715 
	C262.174774,469.692841 260.084259,466.335571 255.360794,465.068298 
	C252.565826,464.318420 249.566406,464.330536 245.762085,464.000000 
M446.930481,351.994873 
	C451.768250,351.703400 453.306335,348.015320 453.484863,344.299530 
	C453.679016,340.259674 451.225739,336.919495 446.914886,336.562469 
	C442.426392,336.190735 437.749939,336.160980 433.361053,337.024902 
	C428.416565,337.998199 426.783691,341.152954 428.119568,346.307343 
	C429.024475,349.798889 431.435333,352.199677 435.598785,352.028992 
	C439.071777,351.886627 442.555206,351.999573 446.930481,351.994873 
M317.895996,336.000763 
	C317.076782,336.078400 316.213837,336.016083 315.445374,336.256104 
	C309.937378,337.976501 307.991272,340.607086 309.090942,345.996246 
	C309.993469,350.419220 313.131744,352.393585 317.767181,352.039337 
	C320.565979,351.825500 323.394806,352.025970 326.209595,351.994049 
	C330.738190,351.942688 334.702087,348.428467 334.754822,344.459351 
	C334.811951,340.162476 330.895782,336.218781 326.251129,336.020264 
	C323.771637,335.914307 321.283966,336.000519 317.895996,336.000763 
M269.958435,288.460632 
	C264.840240,286.184113 258.619141,287.791199 258.250366,292.066345 
	C257.805969,297.217621 258.036957,302.656891 259.321991,307.623138 
	C259.898163,309.849884 263.630280,312.397217 266.146820,312.650940 
	C268.463409,312.884460 271.703735,310.767334 273.399750,308.735992 
	C275.900116,305.741333 273.539917,292.277130 269.958435,288.460632 
M328.422180,480.000000 
	C329.251556,480.000000 330.081085,480.009338 330.910309,479.998505 
	C336.865143,479.920807 339.965576,477.251801 339.999847,472.179230 
	C340.036530,466.749390 336.990143,464.043182 330.771118,464.002960 
	C328.117188,463.985809 325.459625,463.914368 322.809753,464.020020 
	C317.920319,464.214905 314.980377,467.315063 315.000153,472.106140 
	C315.019592,476.825073 318.025299,479.797913 323.021637,479.990662 
	C324.512329,480.048187 326.007111,479.999817 328.422180,480.000000 
M447.392639,479.000000 
	C448.557648,478.999847 449.724243,479.038849 450.887421,478.992767 
	C456.158020,478.783997 459.067841,475.781647 458.999847,470.654572 
	C458.935852,465.829681 455.968964,462.913177 450.846405,463.045990 
	C447.255249,463.139069 443.629913,463.413177 440.101105,464.054016 
	C435.084045,464.965118 433.395020,467.622437 434.017883,472.934479 
	C434.532562,477.323822 437.225586,479.124054 441.469482,479.007233 
	C443.132538,478.961426 444.797913,478.999939 447.392639,479.000000 
z"/>
<path fill="#FF4A4A" opacity="1.000000" stroke="none" 
	d="
M0.999999,267.468658 
	C2.626740,259.789429 4.079733,252.534286 5.916018,245.377502 
	C9.861182,230.001465 17.079889,216.203079 26.801287,203.717651 
	C43.475346,182.302765 64.698669,167.354858 90.799423,159.727509 
	C98.106766,157.592117 105.736328,156.559402 113.903183,155.346344 
	C123.067955,157.824890 131.758911,159.371490 139.989807,162.238708 
	C171.367874,173.169235 194.762268,193.719666 209.941757,223.152222 
	C220.947495,244.492035 225.458252,267.167908 223.249268,291.462219 
	C221.230591,313.663422 214.919235,334.343597 205.344391,354.176880 
	C189.735336,386.509491 167.635498,414.258514 143.153275,440.162384 
	C133.592010,450.278839 123.054260,459.472412 112.666626,468.924652 
	C105.224434,462.054443 98.095833,455.325592 90.922188,448.645111 
	C86.705551,444.718384 82.417381,440.868469 78.011040,436.678711 
	C69.969719,427.150024 61.896122,418.075623 54.225773,408.672333 
	C38.294712,389.141968 24.771261,368.080383 14.977211,344.772522 
	C10.002807,332.934479 5.668844,320.892395 3.884626,308.057739 
	C3.227334,303.329559 1.978838,298.683502 1.000000,294.000000 
	C1.000000,285.312439 1.000000,276.624878 0.999999,267.468658 
M167.529999,258.999786 
	C158.117081,240.337875 136.708817,229.922806 115.796402,235.297226 
	C90.355385,241.835464 75.979919,265.574341 81.385536,289.969482 
	C86.423363,312.704773 103.212578,325.941986 126.654060,326.875977 
	C137.223114,327.297089 146.826859,323.429077 155.233292,316.943298 
	C172.145813,303.894836 178.616241,279.003845 167.529999,258.999786 
z"/>
<path fill="#FFFFFF" opacity="1.000000" stroke="none" 
	d="
M1.000000,294.468658 
	C1.978838,298.683502 3.227334,303.329559 3.884626,308.057739 
	C5.668844,320.892395 10.002807,332.934479 14.977211,344.772522 
	C24.771261,368.080383 38.294712,389.141968 54.225773,408.672333 
	C61.896122,418.075623 69.969719,427.150024 77.794418,436.988281 
	C70.619774,440.487244 63.260078,442.884491 56.472118,446.389130 
	C49.371609,450.055115 42.937847,454.900970 39.649662,463.161285 
	C35.493244,476.572632 39.601284,486.913361 51.165051,495.057678 
	C63.009682,503.399872 76.548218,506.958862 90.347969,509.913422 
	C96.184700,511.163086 102.113205,511.984131 108.000000,513.000000 
	C72.381256,513.000000 36.762505,513.000000 1.000000,513.000000 
	C1.000000,440.312500 1.000000,367.624908 1.000000,294.468658 
z"/>
<path fill="#E7353F" opacity="1.000000" stroke="none" 
	d="
M513.000000,111.531342 
	C511.653168,117.923195 510.477570,123.891594 508.928375,129.761368 
	C503.644531,149.781158 494.403625,168.034622 482.436951,184.735733 
	C474.070435,196.412384 464.345734,207.115860 454.797485,218.705750 
	C452.829071,220.680222 451.344330,222.261719 449.744019,223.716110 
	C439.556152,232.975281 429.359680,242.225143 419.127625,251.435440 
	C416.002472,254.248566 412.402802,253.590225 409.435913,251.587631 
	C406.327240,249.489334 403.785675,246.550827 401.142792,243.681793 
	C406.814575,238.114731 412.654694,233.133286 417.794800,227.511826 
	C426.511627,217.978699 435.015259,208.228806 443.199005,198.234711 
	C459.203644,178.689758 471.779755,157.198822 479.181702,132.868561 
	C484.690918,114.759796 486.065979,96.396896 481.922729,77.914062 
	C475.849030,50.819546 460.678406,30.066845 437.068665,15.409798 
	C425.601685,8.291039 413.104828,4.193635 399.901855,1.961307 
	C399.901855,1.961307 399.986420,1.484276 399.993225,1.242138 
	C409.020905,1.000000 418.041779,1.000000 427.705261,1.374167 
	C441.971954,3.300963 454.614166,7.765574 466.160492,15.082527 
	C485.791626,27.522869 499.986603,44.526806 507.699341,66.551430 
	C510.018555,73.174202 511.263123,80.173294 513.000000,87.000000 
	C513.000000,95.020897 513.000000,103.041801 513.000000,111.531342 
z"/>
<path fill="#FFBC25" opacity="1.000000" stroke="none" 
	d="
M108.468658,513.000000 
	C102.113205,511.984131 96.184700,511.163086 90.347969,509.913422 
	C76.548218,506.958862 63.009682,503.399872 51.165051,495.057678 
	C39.601284,486.913361 35.493244,476.572632 39.796638,463.471130 
	C45.160046,472.948395 53.670341,478.221924 62.820175,482.241150 
	C80.615479,490.058014 99.519470,493.570312 118.851410,493.845154 
	C130.736542,494.014160 142.682953,493.091553 154.529678,491.925659 
	C169.141052,490.487701 183.218063,486.652557 196.094177,479.366241 
	C203.314362,475.280487 210.414993,470.835724 213.203873,462.218323 
	C218.584900,471.497192 214.289581,486.959839 204.355133,493.818359 
	C189.984375,503.739624 173.685684,508.356476 156.679077,510.958649 
	C153.264923,511.481049 149.824677,511.832764 146.198242,512.631592 
	C133.645767,513.000000 121.291542,513.000000 108.468658,513.000000 
z"/>
<path fill="#FFFFFF" opacity="1.000000" stroke="none" 
	d="
M513.000000,86.531342 
	C511.263123,80.173294 510.018555,73.174202 507.699341,66.551430 
	C499.986603,44.526806 485.791626,27.522869 466.160492,15.082527 
	C454.614166,7.765574 441.971954,3.300963 428.173950,1.374167 
	C456.260651,1.000000 484.521332,1.000000 513.000000,1.000000 
	C513.000000,29.353855 513.000000,57.708271 513.000000,86.531342 
z"/>
<path fill="#1EA4E9" opacity="1.000000" stroke="none" 
	d="
M513.000000,423.555847 
	C511.773102,427.089691 510.555786,430.183228 509.316864,433.268097 
	C507.645630,437.429352 503.900726,437.585327 500.601929,436.818329 
	C497.380310,436.069305 494.457489,433.715118 495.085144,429.788513 
	C495.875275,424.845215 496.660034,419.735107 498.597107,415.186768 
	C500.616638,410.444763 507.416931,410.999817 512.662109,415.893280 
	C513.000000,418.370575 513.000000,420.741119 513.000000,423.555847 
z"/>
<path fill="#FF4A4A" opacity="1.000000" stroke="none" 
	d="
M399.483521,1.977431 
	C413.104828,4.193635 425.601685,8.291039 437.068665,15.409798 
	C460.678406,30.066845 475.849030,50.819546 481.922729,77.914062 
	C486.065979,96.396896 484.690918,114.759796 479.181702,132.868561 
	C471.779755,157.198822 459.203644,178.689758 443.199005,198.234711 
	C435.015259,208.228806 426.511627,217.978699 417.794800,227.511826 
	C412.654694,233.133286 406.814575,238.114731 400.845062,243.538376 
	C391.598755,235.421951 382.796692,227.151169 373.994629,218.880402 
	C363.678192,205.768005 352.639008,193.151443 343.220581,179.422958 
	C330.221985,160.475998 320.760162,139.622879 317.173065,116.730743 
	C313.936310,96.074295 316.263916,75.998726 325.521942,56.815651 
	C337.716034,31.548981 357.350830,14.894772 383.348541,5.414252 
	C388.339508,3.594189 393.813873,3.099622 399.483521,1.977431 
M431.942963,68.446190 
	C422.517365,63.393417 412.806610,62.306896 402.594604,65.967339 
	C388.604584,70.982002 379.977173,83.402824 379.025024,96.822411 
	C377.561737,117.445137 396.189911,138.191788 420.132721,134.114471 
	C433.408508,131.853699 442.554016,124.220985 447.456146,112.635254 
	C454.595367,95.762245 447.668884,77.626884 431.942963,68.446190 
z"/>
<path fill="#E7343F" opacity="1.000000" stroke="none" 
	d="
M112.961281,469.086334 
	C123.054260,459.472412 133.592010,450.278839 143.153275,440.162384 
	C167.635498,414.258514 189.735336,386.509491 205.344391,354.176880 
	C214.919235,334.343597 221.230591,313.663422 223.249268,291.462219 
	C225.458252,267.167908 220.947495,244.492035 209.941757,223.152222 
	C194.762268,193.719666 171.367874,173.169235 139.989807,162.238708 
	C131.758911,159.371490 123.067955,157.824890 114.321808,155.418701 
	C131.175446,153.634598 148.079285,155.024094 164.475250,160.121826 
	C179.839523,164.898804 193.766586,172.565811 206.310242,182.776184 
	C230.556702,202.512497 245.393402,227.899551 250.826996,258.463165 
	C255.860306,286.775208 250.687973,313.996155 240.214355,340.546021 
	C230.104095,366.174805 215.205566,388.809448 198.199203,410.183441 
	C190.842789,419.429108 182.891144,428.201202 174.697510,437.553162 
	C173.412552,438.527191 172.589523,439.082703 171.874878,439.753662 
	C160.294785,450.625793 148.941895,461.751740 137.094376,472.323547 
	C126.837090,481.476318 126.038452,480.609985 117.632324,473.418274 
	C116.020042,472.038879 114.515518,470.533569 112.961281,469.086334 
z"/>
<path fill="#FFDB56" opacity="1.000000" stroke="none" 
	d="
M112.666626,468.924652 
	C114.515518,470.533569 116.020042,472.038879 117.632324,473.418274 
	C126.038452,480.609985 126.837090,481.476318 137.094376,472.323547 
	C148.941895,461.751740 160.294785,450.625793 171.874878,439.753662 
	C172.589523,439.082703 173.412552,438.527191 174.519501,437.832458 
	C187.919083,441.234192 200.398361,445.859741 209.733383,456.306305 
	C211.106506,457.842957 211.976181,459.829468 213.141342,461.913086 
	C210.414993,470.835724 203.314362,475.280487 196.094177,479.366241 
	C183.218063,486.652557 169.141052,490.487701 154.529678,491.925659 
	C142.682953,493.091553 130.736542,494.014160 118.851410,493.845154 
	C99.519470,493.570312 80.615479,490.058014 62.820175,482.241150 
	C53.670341,478.221924 45.160046,472.948395 40.123543,463.247162 
	C42.937847,454.900970 49.371609,450.055115 56.472118,446.389130 
	C63.260078,442.884491 70.619774,440.487244 77.944763,437.293640 
	C82.417381,440.868469 86.705551,444.718384 90.922188,448.645111 
	C98.095833,455.325592 105.224434,462.054443 112.666626,468.924652 
z"/>
<path fill="#FFDB56" opacity="1.000000" stroke="none" 
	d="
M373.659546,219.048004 
	C382.796692,227.151169 391.598755,235.421951 400.698547,243.836136 
	C403.785675,246.550827 406.327240,249.489334 409.435913,251.587631 
	C412.402802,253.590225 416.002472,254.248566 419.127625,251.435440 
	C429.359680,242.225143 439.556152,232.975281 449.744019,223.716110 
	C451.344330,222.261719 452.829071,220.680222 454.675720,219.012375 
	C464.490112,222.093094 473.653992,225.903015 480.348633,233.871628 
	C480.964569,234.604782 481.434113,235.460938 481.856415,236.916641 
	C478.890259,240.543076 476.415009,244.037766 473.124146,246.392776 
	C457.920197,257.273041 440.025146,259.370392 422.149994,260.909546 
	C407.832855,262.142334 393.569824,260.470428 379.742889,256.805450 
	C367.043732,253.439377 354.383240,249.356339 346.980438,236.953491 
	C352.102448,227.518066 361.380310,223.911850 370.551971,220.163788 
	C371.454559,219.794952 372.399261,219.529190 373.659546,219.048004 
z"/>
<path fill="#FFBC25" opacity="1.000000" stroke="none" 
	d="
M346.659576,237.149200 
	C354.383240,249.356339 367.043732,253.439377 379.742889,256.805450 
	C393.569824,260.470428 407.832855,262.142334 422.149994,260.909546 
	C440.025146,259.370392 457.920197,257.273041 473.124146,246.392776 
	C476.415009,244.037766 478.890259,240.543076 481.880676,237.264008 
	C486.649597,244.717621 483.891479,258.250458 476.674988,263.651093 
	C465.552185,271.975098 452.833801,276.082825 439.264923,277.971130 
	C436.189270,278.399139 433.090790,278.663177 429.337158,279.078186 
	C428.378632,279.288300 428.158875,279.499054 428.012177,279.786011 
	C419.313232,279.828278 410.614258,279.870514 401.313232,279.662720 
	C400.477844,279.189941 400.200256,279.068146 399.878357,279.047211 
	C384.835449,278.245209 370.417236,275.084137 357.483856,267.016388 
	C347.057129,260.512268 340.195068,250.225189 346.659576,237.149200 
z"/>
<path fill="#1EA4E9" opacity="1.000000" stroke="none" 
	d="
M471.928894,344.954529 
	C473.537201,344.763977 475.067139,344.073730 475.917358,344.563477 
	C479.849915,346.828766 483.841858,349.119171 487.335205,351.982819 
	C490.842712,354.858032 490.957245,358.843170 488.657379,362.652069 
	C486.710022,365.877045 482.132629,366.805481 478.272034,364.605469 
	C474.897400,362.682465 471.416168,360.670593 468.660065,357.998596 
	C463.703613,353.193542 465.097931,347.750000 471.928894,344.954529 
z"/>
<path fill="#1EA4E9" opacity="1.000000" stroke="none" 
	d="
M288.911560,464.000000 
	C293.785950,463.854095 297.879791,464.260345 300.030396,469.048767 
	C302.384247,474.289795 299.351715,479.626862 293.565369,479.962097 
	C290.249054,480.154205 286.912567,480.007538 283.585205,479.997986 
	C278.557861,479.983582 275.234833,477.376343 275.001038,473.279663 
	C274.694794,467.914856 277.479248,464.614868 282.968140,464.037933 
	C284.778473,463.847656 286.625092,464.002777 288.911560,464.000000 
z"/>
<path fill="#1EA4E9" opacity="1.000000" stroke="none" 
	d="
M477.389404,467.968201 
	C469.110535,463.863586 468.598206,456.958893 475.973572,452.058441 
	C479.382202,449.793701 482.918518,446.925812 486.733765,446.259247 
	C492.141754,445.314392 496.686462,451.992432 493.806335,456.611603 
	C490.211212,462.377350 485.549194,467.626770 477.389404,467.968201 
z"/>
<path fill="#1EA4E9" opacity="1.000000" stroke="none" 
	d="
M354.982056,469.108948 
	C356.415619,465.189941 359.009552,463.791290 362.739410,463.967377 
	C366.042236,464.123383 369.358765,464.036499 372.668365,463.991119 
	C376.783661,463.934723 379.278992,466.344849 379.860809,469.944855 
	C380.506622,473.940491 379.964111,478.526093 374.759796,478.958740 
	C369.223755,479.418976 363.402344,479.496002 358.068481,478.221466 
	C354.745728,477.427460 352.710815,473.606628 354.982056,469.108948 
z"/>
<path fill="#1EA4E9" opacity="1.000000" stroke="none" 
	d="
M288.476776,263.010376 
	C285.688477,266.493195 283.445007,269.971771 280.548950,272.776550 
	C277.649963,275.584167 273.890320,276.251801 270.289337,273.747620 
	C265.773346,270.607208 266.086090,266.104126 268.125977,262.941040 
	C270.232147,259.675232 272.651337,256.238464 275.777771,254.125824 
	C278.121674,252.541992 282.252869,251.757874 284.786163,252.723068 
	C288.792511,254.249542 289.947174,258.356323 288.476776,263.010376 
z"/>
<path fill="#1EA4E9" opacity="1.000000" stroke="none" 
	d="
M366.549500,351.999756 
	C362.938934,351.999939 359.778503,352.035828 356.619232,351.991516 
	C351.810486,351.924072 348.504730,349.149475 348.059265,344.877258 
	C347.705017,341.480011 350.823303,336.689392 354.624512,336.326965 
	C359.144470,335.896027 363.796082,336.354889 368.344757,336.849762 
	C373.228455,337.381042 374.248047,341.101624 373.946381,345.191956 
	C373.642059,349.318359 371.247559,351.700958 366.549500,351.999756 
z"/>
<path fill="#1EA4E9" opacity="1.000000" stroke="none" 
	d="
M506.240662,375.733826 
	C508.891876,381.528839 513.267761,386.571686 510.996552,393.240082 
	C509.226746,398.436401 501.946106,400.252197 498.703979,395.989044 
	C495.029358,391.157135 491.593384,385.681824 493.027405,379.199097 
	C494.519653,372.453033 500.813812,370.838867 506.240662,375.733826 
z"/>
<path fill="#1EA4E9" opacity="1.000000" stroke="none" 
	d="
M397.468994,465.049744 
	C403.520905,464.545654 409.341858,463.664490 414.937744,464.429596 
	C416.902069,464.698151 419.600525,469.000214 419.615936,471.475067 
	C419.631317,473.949829 417.244232,477.737915 414.972900,478.672729 
	C409.299103,481.007874 403.112946,480.986633 397.377380,478.058228 
	C392.777313,475.709534 392.723145,469.879395 397.468994,465.049744 
z"/>
<path fill="#1EA4E9" opacity="1.000000" stroke="none" 
	d="
M412.289795,349.182251 
	C405.696289,353.833679 398.730072,352.678802 392.256134,350.724854 
	C390.230988,350.113617 388.481506,345.658081 388.218994,342.813385 
	C387.808533,338.365112 391.978577,336.815704 395.415344,336.185089 
	C399.106384,335.507812 403.083740,335.594940 406.819885,336.142242 
	C412.726715,337.007629 414.698914,341.797180 412.289795,349.182251 
z"/>
<path fill="#1EA4E9" opacity="1.000000" stroke="none" 
	d="
M305.209564,239.893036 
	C310.350647,239.553940 315.138824,238.717377 319.784271,239.214615 
	C323.768799,239.641144 325.380005,243.514618 325.774536,247.108490 
	C326.179169,250.793777 322.122650,254.661835 317.983002,254.947845 
	C314.687775,255.175522 311.348511,254.793030 308.057678,255.050674 
	C303.746735,255.388184 300.903259,253.342545 300.169281,249.492050 
	C299.424286,245.583496 299.805756,241.457962 305.209564,239.893036 
z"/>
<path fill="#1EA4E9" opacity="1.000000" stroke="none" 
	d="
M276.189453,337.685303 
	C272.585693,333.960449 271.910919,327.999664 274.527252,325.021271 
	C277.128296,322.060272 283.049805,322.276947 287.031830,325.533752 
	C289.310089,327.397064 291.534760,329.326935 293.758667,331.255524 
	C297.335876,334.357758 296.683990,338.120056 294.669098,341.486511 
	C292.703613,344.770477 289.119873,345.479218 285.808472,343.925232 
	C282.486755,342.366333 279.552856,339.981079 276.189453,337.685303 
z"/>
<path fill="#1EA4E9" opacity="1.000000" stroke="none" 
	d="
M246.210510,464.000000 
	C249.566406,464.330536 252.565826,464.318420 255.360794,465.068298 
	C260.084259,466.335571 262.174774,469.692841 260.880402,474.338715 
	C259.844147,478.058197 257.198456,480.343628 252.850357,480.042419 
	C249.712524,479.825043 246.523239,479.751495 243.400116,480.056427 
	C238.315765,480.552887 235.854675,477.488770 235.339142,473.393158 
	C234.856964,469.562469 236.552887,466.009521 241.020477,464.942352 
	C242.586685,464.568207 244.180740,464.310730 246.210510,464.000000 
z"/>
<path fill="#1EA4E9" opacity="1.000000" stroke="none" 
	d="
M446.482239,351.997162 
	C442.555206,351.999573 439.071777,351.886627 435.598785,352.028992 
	C431.435333,352.199677 429.024475,349.798889 428.119568,346.307343 
	C426.783691,341.152954 428.416565,337.998199 433.361053,337.024902 
	C437.749939,336.160980 442.426392,336.190735 446.914886,336.562469 
	C451.225739,336.919495 453.679016,340.259674 453.484863,344.299530 
	C453.306335,348.015320 451.768250,351.703400 446.482239,351.997162 
z"/>
<path fill="#1EA4E9" opacity="1.000000" stroke="none" 
	d="
M318.347992,336.000366 
	C321.283966,336.000519 323.771637,335.914307 326.251129,336.020264 
	C330.895782,336.218781 334.811951,340.162476 334.754822,344.459351 
	C334.702087,348.428467 330.738190,351.942688 326.209595,351.994049 
	C323.394806,352.025970 320.565979,351.825500 317.767181,352.039337 
	C313.131744,352.393585 309.993469,350.419220 309.090942,345.996246 
	C307.991272,340.607086 309.937378,337.976501 315.445374,336.256104 
	C316.213837,336.016083 317.076782,336.078400 318.347992,336.000366 
z"/>
<path fill="#1EA4E9" opacity="1.000000" stroke="none" 
	d="
M270.285248,288.691040 
	C273.539917,292.277130 275.900116,305.741333 273.399750,308.735992 
	C271.703735,310.767334 268.463409,312.884460 266.146820,312.650940 
	C263.630280,312.397217 259.898163,309.849884 259.321991,307.623138 
	C258.036957,302.656891 257.805969,297.217621 258.250366,292.066345 
	C258.619141,287.791199 264.840240,286.184113 270.285248,288.691040 
z"/>
<path fill="#1EA4E9" opacity="1.000000" stroke="none" 
	d="
M327.961090,480.000000 
	C326.007111,479.999817 324.512329,480.048187 323.021637,479.990662 
	C318.025299,479.797913 315.019592,476.825073 315.000153,472.106140 
	C314.980377,467.315063 317.920319,464.214905 322.809753,464.020020 
	C325.459625,463.914368 328.117188,463.985809 330.771118,464.002960 
	C336.990143,464.043182 340.036530,466.749390 339.999847,472.179230 
	C339.965576,477.251801 336.865143,479.920807 330.910309,479.998505 
	C330.081085,480.009338 329.251556,480.000000 327.961090,480.000000 
z"/>
<path fill="#1EA4E9" opacity="1.000000" stroke="none" 
	d="
M446.927429,479.000000 
	C444.797913,478.999939 443.132538,478.961426 441.469482,479.007233 
	C437.225586,479.124054 434.532562,477.323822 434.017883,472.934479 
	C433.395020,467.622437 435.084045,464.965118 440.101105,464.054016 
	C443.629913,463.413177 447.255249,463.139069 450.846405,463.045990 
	C455.968964,462.913177 458.935852,465.829681 458.999847,470.654572 
	C459.067841,475.781647 456.158020,478.783997 450.887421,478.992767 
	C449.724243,479.038849 448.557648,478.999847 446.927429,479.000000 
z"/>
<path fill="#FFC736" opacity="1.000000" stroke="none" 
	d="
M428.264893,279.809631 
	C428.158875,279.499054 428.378632,279.288300 428.897217,279.100067 
	C428.921204,279.308716 428.719391,279.570953 428.264893,279.809631 
z"/>
<path fill="#FFC736" opacity="1.000000" stroke="none" 
	d="
M399.986389,279.276062 
	C400.200256,279.068146 400.477844,279.189941 400.847656,279.598999 
	C400.687561,279.691895 400.390991,279.598419 399.986389,279.276062 
z"/>
<path fill="#FFFFFF" opacity="1.000000" stroke="none" 
	d="
M167.787109,259.280396 
	C178.616241,279.003845 172.145813,303.894836 155.233292,316.943298 
	C146.826859,323.429077 137.223114,327.297089 126.654060,326.875977 
	C103.212578,325.941986 86.423363,312.704773 81.385536,289.969482 
	C75.979919,265.574341 90.355385,241.835464 115.796402,235.297226 
	C136.708817,229.922806 158.117081,240.337875 167.787109,259.280396 
z"/>
<path fill="#FFFFFF" opacity="1.000000" stroke="none" 
	d="
M432.242004,68.677185 
	C447.668884,77.626884 454.595367,95.762245 447.456146,112.635254 
	C442.554016,124.220985 433.408508,131.853699 420.132721,134.114471 
	C396.189911,138.191788 377.561737,117.445137 379.025024,96.822411 
	C379.977173,83.402824 388.604584,70.982002 402.594604,65.967339 
	C412.806610,62.306896 422.517365,63.393417 432.242004,68.677185 
z"/>
</svg>