<svg version="1.1" id="Layer_1" xmlns="http://www.w3.org/2000/svg" xmlns:xlink="http://www.w3.org/1999/xlink" x="0px" y="0px"
	 width="100%" viewBox="0 0 512 512" enable-background="new 0 0 512 512" xml:space="preserve">
<path fill="#FFFFFF" opacity="1.000000" stroke="none" 
	d="
M0.999996,251.000000 
	C1.000000,167.739624 1.000000,84.479256 1.000000,1.000000 
	C84.020767,1.000000 167.041718,1.000000 250.406097,1.323965 
	C244.298645,4.558755 240.209274,9.228902 240.028854,16.576456 
	C239.879074,22.676397 239.960800,28.782024 239.517883,34.934723 
	C234.388931,35.651894 229.688110,36.366161 224.974121,36.979053 
	C203.161072,39.815109 182.422241,46.319359 162.654114,55.797085 
	C136.889053,68.150002 114.196091,84.662827 94.633888,105.677010 
	C81.172966,120.137039 69.804230,135.970795 60.470715,153.230789 
	C45.844852,180.277634 37.785168,209.381348 34.426743,239.969727 
	C28.511486,239.993698 23.056396,240.015533 17.601473,239.994324 
	C12.418975,239.974167 7.956267,241.447388 4.595711,246.088745 
	C3.195898,247.823547 2.097945,249.411774 0.999996,251.000000 
z"/>
<path fill="#FFFFFF" opacity="1.000000" stroke="none" 
	d="
M251.000000,513.000000 
	C167.739624,513.000000 84.479256,513.000000 1.000000,513.000000 
	C1.000000,429.979248 1.000000,346.958282 1.323960,263.593903 
	C4.558710,269.701416 9.228949,273.790710 16.576443,273.971191 
	C22.676378,274.121063 28.782003,274.039246 34.934738,274.482056 
	C35.651924,279.610901 36.366123,284.311737 36.979069,289.025757 
	C39.815193,310.837738 46.318348,331.576111 55.793877,351.343994 
	C68.144394,377.109680 84.666237,399.796173 105.673691,419.360840 
	C120.130257,432.824524 135.964767,444.192322 153.224625,453.525970 
	C180.270981,468.151855 209.375153,476.208069 239.965179,479.576172 
	C239.993881,483.857880 240.335587,487.714722 239.934799,491.492767 
	C238.906845,501.183289 242.292221,508.412354 251.000000,513.000000 
z"/>
<path fill="#FFFFFF" opacity="1.000000" stroke="none" 
	d="
M513.000000,263.000000 
	C513.000000,346.260376 513.000000,429.520752 513.000000,513.000000 
	C429.979248,513.000000 346.958282,513.000000 263.584473,512.684082 
	C264.840515,511.280731 266.449463,510.193176 268.370850,508.953735 
	C272.309998,505.743011 273.988068,501.799744 274.003510,497.097992 
	C274.023224,491.104706 274.047943,485.111450 274.492615,479.072449 
	C279.617676,478.357391 284.313995,477.637360 289.024597,477.027435 
	C310.843536,474.202393 331.581787,467.684387 351.352570,458.210419 
	C377.116180,445.864777 399.797943,429.343689 419.365662,408.341400 
	C432.832489,393.887268 444.191498,378.050323 453.523834,360.794464 
	C468.150024,333.750000 476.225739,304.650116 479.573639,274.046204 
	C483.855286,274.008148 487.712494,273.664459 491.490753,274.065033 
	C501.181580,275.092438 508.411743,271.708435 513.000000,263.000000 
z"/>
<path fill="#FFFFFF" opacity="1.000000" stroke="none" 
	d="
M263.000000,1.000001 
	C346.260376,1.000000 429.520752,1.000000 513.000000,1.000000 
	C513.000000,84.020767 513.000000,167.041718 512.684021,250.415634 
	C511.279938,249.160019 510.191833,247.551468 508.952026,245.630402 
	C505.741089,241.691589 501.797943,240.013870 497.095978,239.998596 
	C491.102448,239.979111 485.108948,239.953552 479.070496,239.508316 
	C478.356445,234.382996 477.636780,229.686508 477.026825,224.975830 
	C474.201630,203.156281 467.685333,182.416534 458.208435,162.646378 
	C445.859344,136.884445 429.347107,114.194977 408.337616,94.630981 
	C393.879791,81.167938 378.044983,69.804893 360.788025,60.472980 
	C333.742004,45.847481 304.639893,37.775875 274.041260,34.424774 
	C274.008911,28.510134 273.985504,23.055296 274.006134,17.600626 
	C274.025726,12.418271 272.552643,7.955916 267.911407,4.595592 
	C266.176453,3.195859 264.588226,2.097931 263.000000,1.000001 
z"/>
<path fill="#F9972D" opacity="1.000000" stroke="none" 
	d="
M34.885109,274.060059 
	C28.782003,274.039246 22.676378,274.121063 16.576443,273.971191 
	C9.228949,273.790710 4.558710,269.701416 1.323960,263.125244 
	C1.000000,259.307098 1.000000,255.614182 0.999996,251.460632 
	C2.097945,249.411774 3.195898,247.823547 4.915598,246.243286 
	C9.642177,247.834000 13.717611,250.688797 17.856806,250.784454 
	C38.304104,251.256943 58.768543,251.056000 79.226295,250.957611 
	C84.055809,250.934387 88.387833,249.432404 91.349487,245.054291 
	C96.887131,251.127548 97.656395,258.051758 94.431374,264.776245 
	C91.120583,271.679535 84.927940,274.763672 77.054871,274.035461 
	C74.762329,273.823395 72.428917,274.053192 69.669991,274.053955 
	C67.156425,274.028534 65.087112,274.029663 62.548149,274.019836 
	C53.014034,274.025940 43.949570,274.042999 34.885109,274.060059 
z"/>
<path fill="#F9972D" opacity="1.000000" stroke="none" 
	d="
M509.103760,245.942902 
	C510.191833,247.551468 511.279938,249.160019 512.684021,250.884293 
	C513.000000,254.692917 513.000000,258.385834 513.000000,262.539368 
	C508.411743,271.708435 501.181580,275.092438 491.490753,274.065033 
	C487.712494,273.664459 483.855286,274.008148 479.098053,274.018738 
	C466.737579,274.043671 455.313080,274.062714 443.432007,274.047424 
	C440.479858,274.008209 437.977234,273.879486 435.490112,274.021484 
	C427.842682,274.458160 422.395905,270.810577 419.296875,264.273285 
	C416.758148,258.917999 416.747192,250.294647 423.115356,245.214661 
	C426.305420,249.646027 430.593292,250.996506 435.474030,250.997787 
	C454.438049,251.002701 473.404236,250.836746 492.364807,251.092010 
	C498.663086,251.176819 504.128723,249.628372 509.103760,245.942902 
z"/>
<path fill="#F9972D" opacity="1.000000" stroke="none" 
	d="
M262.539368,1.000001 
	C264.588226,2.097931 266.176453,3.195859 267.756836,4.915491 
	C266.166199,9.642030 263.311279,13.717465 263.215607,17.856667 
	C262.743073,38.304096 262.943909,58.768677 263.042542,79.226555 
	C263.065826,84.055733 264.567108,88.388481 268.946106,91.349396 
	C262.872589,96.887138 255.948364,97.656166 249.223587,94.431305 
	C242.319458,91.120430 239.237198,84.926712 239.964706,77.054070 
	C240.176559,74.761414 239.947250,72.427986 239.947327,69.637726 
	C239.974548,59.446327 239.974640,49.730465 239.984390,39.587372 
	C239.976028,37.735142 239.957993,36.310135 239.939972,34.885132 
	C239.960800,28.782024 239.879074,22.676397 240.028854,16.576456 
	C240.209274,9.228902 244.298645,4.558755 250.874756,1.323965 
	C254.692917,1.000000 258.385834,1.000000 262.539368,1.000001 
z"/>
<path fill="#F9972D" opacity="1.000000" stroke="none" 
	d="
M268.058411,509.105652 
	C266.449463,510.193176 264.840515,511.280731 263.115784,512.684082 
	C259.307098,513.000000 255.614182,513.000000 251.460632,513.000000 
	C242.292221,508.412354 238.906845,501.183289 239.934799,491.492767 
	C240.335587,487.714722 239.993881,483.857880 239.985168,479.148682 
	C239.977921,476.835175 239.975845,475.409912 239.986145,473.517761 
	C239.978622,463.672546 239.958740,454.294189 239.981720,444.459564 
	C239.807709,436.107300 239.470413,428.178955 246.249878,421.928009 
	C253.227936,416.866364 260.049164,417.226074 267.093811,421.341858 
	C267.473267,422.038513 267.747253,422.491455 267.872131,423.259460 
	C266.148804,427.778107 263.327972,431.948578 263.215302,436.191010 
	C262.717865,454.922333 263.163879,473.676605 262.908234,492.417664 
	C262.822540,498.700806 264.389709,504.144379 268.058411,509.105652 
z"/>
<path fill="#FEB644" opacity="1.000000" stroke="none" 
	d="
M239.517883,34.934723 
	C239.957993,36.310135 239.976028,37.735142 239.575195,39.582657 
	C233.195801,41.355324 227.095261,42.269619 221.299133,44.131542 
	C196.998276,51.937843 174.245377,62.853401 153.635300,78.122337 
	C136.037415,91.159691 120.539742,106.365837 107.311882,123.688721 
	C90.972511,145.086334 78.398232,168.724854 71.420395,194.787628 
	C67.468178,209.549469 65.736786,224.905930 62.536167,239.997040 
	C53.007122,239.982620 43.947056,239.965714 34.886986,239.948807 
	C37.785168,209.381348 45.844852,180.277634 60.470715,153.230789 
	C69.804230,135.970795 81.172966,120.137039 94.633888,105.677010 
	C114.196091,84.662827 136.889053,68.150002 162.654114,55.797085 
	C182.422241,46.319359 203.161072,39.815109 224.974121,36.979053 
	C229.688110,36.366161 234.388931,35.651894 239.517883,34.934723 
z"/>
<path fill="#FDA537" opacity="1.000000" stroke="none" 
	d="
M34.426743,239.969727 
	C43.947056,239.965714 53.007122,239.982620 62.979370,240.003265 
	C65.967194,239.981628 68.042847,239.956238 70.575424,239.958618 
	C72.844177,239.990829 74.660561,240.080704 76.466942,239.983826 
	C81.986298,239.687790 87.174423,240.293274 91.028656,244.897125 
	C88.387833,249.432404 84.055809,250.934387 79.226295,250.957611 
	C58.768543,251.056000 38.304104,251.256943 17.856806,250.784454 
	C13.717611,250.688797 9.642177,247.834000 5.217459,246.096680 
	C7.956267,241.447388 12.418975,239.974167 17.601473,239.994324 
	C23.056396,240.015533 28.511486,239.993698 34.426743,239.969727 
z"/>
<path fill="#FEB644" opacity="1.000000" stroke="none" 
	d="
M239.973785,473.984619 
	C239.975845,475.409912 239.977921,476.835175 239.959991,478.687958 
	C209.375153,476.208069 180.270981,468.151855 153.224625,453.525970 
	C135.964767,444.192322 120.130257,432.824524 105.673691,419.360840 
	C84.666237,399.796173 68.144394,377.109680 55.793877,351.343994 
	C46.318348,331.576111 39.815193,310.837738 36.979069,289.025757 
	C36.366123,284.311737 35.651924,279.610901 34.934738,274.481995 
	C43.949570,274.042999 53.014034,274.025940 62.541679,274.460541 
	C63.659134,280.315796 64.233559,285.730469 64.981857,291.121002 
	C67.828201,311.625488 74.199348,331.076935 82.929657,349.768585 
	C91.464607,368.041992 102.244156,384.876190 115.464684,400.172943 
	C128.436554,415.182068 142.775681,428.713379 159.103760,439.918701 
	C176.114044,451.592285 194.401550,461.043579 214.086548,467.406403 
	C222.541077,470.139160 231.334396,471.823792 239.973785,473.984619 
z"/>
<path fill="#FFC850" opacity="1.000000" stroke="none" 
	d="
M443.888611,274.081757 
	C455.313080,274.062714 466.737579,274.043671 478.637634,274.052094 
	C476.225739,304.650116 468.150024,333.750000 453.523834,360.794464 
	C444.191498,378.050323 432.832489,393.887268 419.365662,408.341400 
	C399.797943,429.343689 377.116180,445.864777 351.352570,458.210419 
	C331.581787,467.684387 310.843536,474.202393 289.024597,477.027435 
	C284.313995,477.637360 279.617676,478.357391 274.468079,478.595978 
	C274.017853,467.104095 274.014282,456.042969 274.431885,444.976135 
	C276.820618,444.669525 278.782471,444.322449 280.756744,444.074615 
	C318.110840,439.386078 350.728821,424.072815 379.352081,399.935181 
	C383.237030,396.659119 386.572388,392.731323 390.451965,388.935242 
	C396.801819,381.599609 403.367554,374.796906 408.821625,367.196442 
	C422.109100,348.679840 432.827057,328.739288 438.153229,306.401337 
	C440.686646,295.776367 442.014557,284.863953 443.888611,274.081757 
z"/>
<path fill="#FDA638" opacity="1.000000" stroke="none" 
	d="
M274.010742,444.981842 
	C274.014282,456.042969 274.017853,467.104095 274.045929,478.641693 
	C274.047943,485.111450 274.023224,491.104706 274.003510,497.097992 
	C273.988068,501.799744 272.309998,505.743011 268.370850,508.953735 
	C264.389709,504.144379 262.822540,498.700806 262.908234,492.417664 
	C263.163879,473.676605 262.717865,454.922333 263.215302,436.191010 
	C263.327972,431.948578 266.148804,427.778107 268.097290,423.347778 
	C268.868958,423.395844 269.266479,423.670715 269.842712,424.275146 
	C274.940552,430.694397 273.521332,438.024963 274.010742,444.981842 
z"/>
<path fill="#FFC850" opacity="1.000000" stroke="none" 
	d="
M274.069458,34.884647 
	C304.639893,37.775875 333.742004,45.847481 360.788025,60.472980 
	C378.044983,69.804893 393.879791,81.167938 408.337616,94.630981 
	C429.347107,114.194977 445.859344,136.884445 458.208435,162.646378 
	C467.685333,182.416534 474.201630,203.156281 477.026825,224.975830 
	C477.636780,229.686508 478.356445,234.382996 478.594238,239.532990 
	C466.736420,239.962875 455.309967,239.945801 443.928284,239.486938 
	C443.656586,236.105225 443.384857,233.159698 443.016357,230.226303 
	C440.640564,211.313873 435.226166,193.194031 426.474945,176.378830 
	C420.357513,164.624405 412.730804,153.600128 405.188538,142.656097 
	C394.882568,127.701920 381.481384,115.656418 366.889801,105.039627 
	C348.538635,91.687386 328.633545,81.197197 306.437073,75.869415 
	C295.800995,73.316460 284.869202,71.995399 274.046936,69.641022 
	C274.038177,57.738632 274.053833,46.311642 274.069458,34.884647 
z"/>
<path fill="#FDA537" opacity="1.000000" stroke="none" 
	d="
M443.883484,239.928741 
	C455.309967,239.945801 466.736420,239.962875 478.639160,239.955292 
	C485.108948,239.953552 491.102448,239.979111 497.095978,239.998596 
	C501.797943,240.013870 505.741089,241.691589 508.952026,245.630386 
	C504.128723,249.628372 498.663086,251.176819 492.364807,251.092010 
	C473.404236,250.836746 454.438049,251.002701 435.474030,250.997787 
	C430.593292,250.996506 426.305420,249.646027 423.261902,244.896912 
	C429.201965,238.360428 436.802399,240.380753 443.883484,239.928741 
z"/>
<path fill="#FDA537" opacity="1.000000" stroke="none" 
	d="
M274.041260,34.424774 
	C274.053833,46.311642 274.038177,57.738632 274.018188,70.097305 
	C274.009399,72.841049 273.919647,74.657707 274.016541,76.464348 
	C274.312592,81.984375 273.707428,87.173378 269.103424,91.028603 
	C264.567108,88.388481 263.065826,84.055733 263.042542,79.226555 
	C262.943909,58.768677 262.743073,38.304096 263.215607,17.856667 
	C263.311279,13.717465 266.166199,9.642030 267.903564,5.217296 
	C272.552643,7.955916 274.025726,12.418271 274.006134,17.600626 
	C273.985504,23.055296 274.008911,28.510134 274.041260,34.424774 
z"/>
<path fill="#FFFFFF" opacity="1.000000" stroke="none" 
	d="
M268.946106,91.349396 
	C273.707428,87.173378 274.312592,81.984375 274.016541,76.464348 
	C273.919647,74.657707 274.009399,72.841049 274.042603,70.572693 
	C284.869202,71.995399 295.800995,73.316460 306.437073,75.869415 
	C328.633545,81.197197 348.538635,91.687386 366.889801,105.039627 
	C381.481384,115.656418 394.882568,127.701920 405.188538,142.656097 
	C412.730804,153.600128 420.357513,164.624405 426.474945,176.378830 
	C435.226166,193.194031 440.640564,211.313873 443.016357,230.226303 
	C443.384857,233.159698 443.656586,236.105225 443.928284,239.486938 
	C436.802399,240.380753 429.201965,238.360428 423.118805,244.577942 
	C416.747192,250.294647 416.758148,258.917999 419.296875,264.273285 
	C422.395905,270.810577 427.842682,274.458160 435.490112,274.021484 
	C437.977234,273.879486 440.479858,274.008209 443.431976,274.047424 
	C442.014557,284.863953 440.686646,295.776367 438.153229,306.401337 
	C432.827057,328.739288 422.109100,348.679840 408.821625,367.196442 
	C403.367554,374.796906 396.801819,381.599609 390.127625,388.776245 
	C385.326019,386.851257 381.225342,384.693176 376.936157,383.017548 
	C357.980530,375.612213 338.970673,368.345642 319.651917,360.877625 
	C310.574158,357.481567 301.824951,354.236725 293.047516,350.524536 
	C292.980377,341.046661 292.941467,332.036133 293.063049,322.722046 
	C309.014648,310.135803 318.999756,294.756927 319.455322,274.035339 
	C327.578491,274.513794 334.155975,271.811890 340.345154,266.931610 
	C350.684998,255.821671 350.468079,243.038589 340.059143,233.709961 
	C340.022583,233.523956 339.869629,233.177017 339.924438,232.700043 
	C339.986267,220.421295 340.132935,208.617020 339.923309,196.819107 
	C339.851501,192.776947 339.166473,188.688431 338.283813,184.727585 
	C333.800446,164.608963 323.071777,148.412277 306.580994,136.206253 
	C297.790466,129.699753 288.188904,124.555016 276.878174,122.613655 
	C267.251617,121.107063 258.033875,119.574387 248.304565,120.766731 
	C231.546600,122.820457 216.777649,128.810654 204.009140,139.574921 
	C183.053131,157.241547 174.261612,180.469025 174.026581,207.372147 
	C173.946518,216.537933 174.028244,225.705139 173.718414,235.029510 
	C168.457825,241.116348 165.633347,247.454224 167.744736,255.533646 
	C170.535324,266.212006 181.686111,274.755341 195.982300,274.544586 
	C195.930252,289.181915 200.897110,301.456726 210.439972,311.816040 
	C214.411133,316.126984 218.896866,319.963928 223.095306,324.481323 
	C223.007507,333.630646 222.972992,342.315063 222.565796,351.022522 
	C213.474182,354.380249 204.755234,357.714905 195.695618,361.175293 
	C192.264313,362.486084 189.165024,363.649170 186.084518,364.859955 
	C172.375534,370.248138 158.671906,375.649902 144.600433,381.071106 
	C137.772552,384.144775 131.310562,387.194122 124.566360,390.051819 
	C117.882370,382.329681 110.944595,375.185211 105.186844,367.190887 
	C91.867378,348.697571 81.173264,328.738678 75.847076,306.400330 
	C73.313751,295.775421 71.987366,284.862762 70.114243,274.080444 
	C72.428917,274.053192 74.762329,273.823395 77.054871,274.035461 
	C84.927940,274.763672 91.120583,271.679535 94.431374,264.776245 
	C97.656395,258.051758 96.887131,251.127548 91.349487,245.054291 
	C87.174423,240.293274 81.986298,239.687790 76.466942,239.983826 
	C74.660561,240.080704 72.844177,239.990829 70.529724,239.516754 
	C70.343460,236.107239 70.615059,233.161743 70.983452,230.228394 
	C73.358574,211.316345 78.771004,193.196457 87.522804,176.381805 
	C93.640572,164.627884 101.266670,153.603683 108.808731,142.659927 
	C119.114426,127.706078 132.511169,115.655128 147.105011,105.042068 
	C165.457489,91.695610 185.354721,81.190300 207.555695,75.871872 
	C218.193237,73.323563 229.122849,71.994507 239.920181,70.113251 
	C239.947250,72.427986 240.176559,74.761414 239.964706,77.054070 
	C239.237198,84.926712 242.319458,91.120430 249.223587,94.431305 
	C255.948364,97.656166 262.872589,96.887138 268.946106,91.349396 
z"/>
<path fill="#FFC851" opacity="1.000000" stroke="none" 
	d="
M69.669991,274.053955 
	C71.987366,284.862762 73.313751,295.775421 75.847076,306.400330 
	C81.173264,328.738678 91.867378,348.697571 105.186844,367.190887 
	C110.944595,375.185211 117.882370,382.329681 124.666237,390.363098 
	C128.707642,394.217285 132.366943,397.568542 136.212463,401.196808 
	C144.089767,406.982574 151.510666,412.924774 159.522308,417.919403 
	C184.146637,433.270813 211.026962,442.190979 239.938858,444.915802 
	C239.958740,454.294189 239.978622,463.672546 239.986145,473.517761 
	C231.334396,471.823792 222.541077,470.139160 214.086548,467.406403 
	C194.401550,461.043579 176.114044,451.592285 159.103760,439.918701 
	C142.775681,428.713379 128.436554,415.182068 115.464684,400.172943 
	C102.244156,384.876190 91.464607,368.041992 82.929657,349.768585 
	C74.199348,331.076935 67.828201,311.625488 64.981857,291.121002 
	C64.233559,285.730469 63.659134,280.315796 63.011333,274.471497 
	C65.087112,274.029663 67.156425,274.028534 69.669991,274.053955 
z"/>
<path fill="#FFC850" opacity="1.000000" stroke="none" 
	d="
M239.947327,69.637726 
	C229.122849,71.994507 218.193237,73.323563 207.555695,75.871872 
	C185.354721,81.190300 165.457489,91.695610 147.105011,105.042068 
	C132.511169,115.655128 119.114426,127.706078 108.808731,142.659927 
	C101.266670,153.603683 93.640572,164.627884 87.522804,176.381805 
	C78.771004,193.196457 73.358574,211.316345 70.983452,230.228394 
	C70.615059,233.161743 70.343460,236.107239 70.072792,239.488983 
	C68.042847,239.956238 65.967194,239.981628 63.448345,240.000793 
	C65.736786,224.905930 67.468178,209.549469 71.420395,194.787628 
	C78.398232,168.724854 90.972511,145.086334 107.311882,123.688721 
	C120.539742,106.365837 136.037415,91.159691 153.635300,78.122337 
	C174.245377,62.853401 196.998276,51.937843 221.299133,44.131542 
	C227.095261,42.269619 233.195801,41.355324 239.565521,40.009888 
	C239.974640,49.730465 239.974548,59.446327 239.947327,69.637726 
z"/>
<path fill="#E4EAF7" opacity="1.000000" stroke="none" 
	d="
M239.981720,444.459564 
	C211.026962,442.190979 184.146637,433.270813 159.522308,417.919403 
	C151.510666,412.924774 144.089767,406.982574 136.206619,400.810028 
	C136.512756,398.423035 136.765396,396.576874 137.555206,394.999664 
	C139.912598,390.292145 142.480606,385.690063 144.966354,381.046814 
	C158.671906,375.649902 172.375534,370.248138 186.084518,364.859955 
	C189.165024,363.649170 192.264313,362.486084 195.721985,361.519104 
	C205.361588,375.285339 214.644379,388.826569 223.901962,402.384979 
	C227.982300,408.360962 229.278671,408.847351 236.616776,407.045044 
	C239.882980,412.201355 242.899429,417.136993 245.915863,422.072662 
	C239.470413,428.178955 239.807709,436.107300 239.981720,444.459564 
z"/>
<path fill="#D84141" opacity="1.000000" stroke="none" 
	d="
M246.249893,421.928009 
	C242.899429,417.136993 239.882980,412.201355 236.642303,406.731995 
	C237.730759,404.983002 238.973358,403.679779 240.368408,402.567780 
	C246.058228,398.032501 251.794678,393.555695 257.699829,389.145844 
	C258.163483,389.243500 258.432892,389.200378 258.917542,389.369049 
	C262.123871,392.017731 265.106567,394.402344 267.945312,397.111664 
	C267.246674,398.049347 266.769318,398.762421 266.125305,399.259705 
	C260.094849,403.916107 259.504028,407.144073 263.302704,413.601166 
	C264.710724,415.994598 265.770020,418.593140 266.988342,421.098145 
	C260.049164,417.226074 253.227936,416.866364 246.249893,421.928009 
z"/>
<path fill="#E54C4C" opacity="1.000000" stroke="none" 
	d="
M267.093811,421.341858 
	C265.770020,418.593140 264.710724,415.994598 263.302704,413.601166 
	C259.504028,407.144073 260.094849,403.916107 266.125305,399.259705 
	C266.769318,398.762421 267.246674,398.049347 268.271057,397.222168 
	C272.451996,400.318176 276.163239,403.628418 279.612427,407.152893 
	C276.121582,412.893250 272.892761,418.419403 269.663940,423.945557 
	C269.266479,423.670715 268.868958,423.395844 268.246338,423.032684 
	C267.747253,422.491455 267.473267,422.038513 267.093811,421.341858 
z"/>
<path fill="#E4EAF7" opacity="1.000000" stroke="none" 
	d="
M269.842712,424.275146 
	C272.892761,418.419403 276.121582,412.893250 280.019958,407.173340 
	C286.201111,409.302582 289.540741,406.940735 292.543549,402.258362 
	C297.272522,394.884216 302.678864,387.948090 307.559021,380.666077 
	C311.869446,374.234222 315.852722,367.583130 319.980438,361.028839 
	C338.970673,368.345642 357.980530,375.612213 376.936157,383.017548 
	C381.225342,384.693176 385.326019,386.851257 389.837830,388.946259 
	C386.572388,392.731323 383.237030,396.659119 379.352081,399.935181 
	C350.728821,424.072815 318.110840,439.386078 280.756744,444.074615 
	C278.782471,444.322449 276.820618,444.669525 274.431885,444.976135 
	C273.521332,438.024963 274.940552,430.694397 269.842712,424.275146 
z"/>
<path fill="#F7B594" opacity="1.000000" stroke="none" 
	d="
M319.011963,274.059814 
	C318.999756,294.756927 309.014648,310.135803 292.698303,322.714630 
	C289.217163,324.446472 286.385681,326.340729 283.269653,327.186218 
	C280.274902,327.998871 276.642212,328.723145 273.879608,327.772400 
	C250.844467,319.845093 235.267548,295.480286 235.895584,271.502258 
	C236.387100,252.737244 236.001633,233.949234 236.397034,215.089874 
	C255.172485,211.208633 272.524506,204.717407 288.427490,194.685455 
	C293.036896,191.777740 296.485107,191.970901 300.064636,196.249146 
	C304.006744,200.960815 308.090424,205.638168 312.658203,209.719666 
	C317.699799,214.224503 319.950134,219.393845 319.015137,226.485031 
	C319.003021,242.653824 319.007507,258.356812 319.011963,274.059814 
z"/>
<path fill="#5E6377" opacity="1.000000" stroke="none" 
	d="
M319.031769,226.019241 
	C319.950134,219.393845 317.699799,214.224503 312.658203,209.719666 
	C308.090424,205.638168 304.006744,200.960815 300.064636,196.249146 
	C296.485107,191.970901 293.036896,191.777740 288.427490,194.685455 
	C272.524506,204.717407 255.172485,211.208633 235.978943,215.035400 
	C228.107697,215.671219 221.045807,216.279938 213.990021,216.429474 
	C214.329239,209.521240 214.625748,203.070068 215.002289,196.623566 
	C216.133087,177.264893 223.953781,160.777512 236.909943,146.646149 
	C247.861984,134.700668 261.588684,127.275154 277.094910,122.961250 
	C288.188904,124.555016 297.790466,129.699753 306.580994,136.206253 
	C323.071777,148.412277 333.800446,164.608963 338.283813,184.727585 
	C339.166473,188.688431 339.851501,192.776947 339.923309,196.819107 
	C340.132935,208.617020 339.986267,220.421295 339.583069,232.615646 
	C333.303711,228.269897 326.282349,226.814056 319.031769,226.019241 
z"/>
<path fill="#F0A479" opacity="1.000000" stroke="none" 
	d="
M213.983902,216.888657 
	C221.045807,216.279938 228.107697,215.671219 235.587708,215.116974 
	C236.001633,233.949234 236.387100,252.737244 235.895584,271.502258 
	C235.267548,295.480286 250.844467,319.845093 273.879608,327.772400 
	C276.642212,328.723145 280.274902,327.998871 283.269653,327.186218 
	C286.385681,326.340729 289.217163,324.446472 292.537781,323.018219 
	C292.941467,332.036133 292.980377,341.046661 292.741638,350.673645 
	C284.731720,359.551575 276.999420,367.813019 268.923157,375.814697 
	C268.386108,363.794189 268.185669,352.033661 268.005798,340.272766 
	C267.966370,337.696320 268.000000,335.118744 268.000000,332.472656 
	C253.928452,334.015533 241.179459,332.335358 229.162552,326.122467 
	C227.294312,325.156586 225.159927,324.705536 223.148605,324.016418 
	C218.896866,319.963928 214.411133,316.126984 210.439972,311.816040 
	C200.897110,301.456726 195.930252,289.181915 195.991150,274.093262 
	C196.195221,268.868774 195.476379,265.273376 192.548920,261.402130 
	C187.493118,254.716431 186.939774,246.566147 192.383087,239.784683 
	C195.806992,235.519089 196.381470,231.415955 195.845551,226.169693 
	C196.153030,218.016159 197.235046,216.994202 205.032913,217.001801 
	C208.016541,217.004700 211.000244,216.928711 213.983902,216.888657 
z"/>
<path fill="#52586D" opacity="1.000000" stroke="none" 
	d="
M213.990021,216.429474 
	C211.000244,216.928711 208.016541,217.004700 205.032913,217.001801 
	C197.235046,216.994202 196.153030,218.016159 195.425446,226.249756 
	C186.848572,226.502792 180.372650,230.508148 174.036041,234.871689 
	C174.028244,225.705139 173.946518,216.537933 174.026581,207.372147 
	C174.261612,180.469025 183.053131,157.241547 204.009140,139.574921 
	C216.777649,128.810654 231.546600,122.820457 248.304565,120.766731 
	C258.033875,119.574387 267.251617,121.107063 276.878174,122.613655 
	C261.588684,127.275154 247.861984,134.700668 236.909943,146.646149 
	C223.953781,160.777512 216.133087,177.264893 215.002289,196.623566 
	C214.625748,203.070068 214.329239,209.521240 213.990021,216.429474 
z"/>
<path fill="#E5966F" opacity="1.000000" stroke="none" 
	d="
M223.095306,324.481323 
	C225.159927,324.705536 227.294312,325.156586 229.162552,326.122467 
	C241.179459,332.335358 253.928452,334.015533 268.000000,332.472656 
	C268.000000,335.118744 267.966370,337.696320 268.005798,340.272766 
	C268.185669,352.033661 268.386108,363.794189 268.800354,376.137848 
	C265.578979,380.848877 262.136444,384.976929 258.693909,389.104980 
	C258.432892,389.200378 258.163483,389.243500 257.599609,388.792847 
	C250.917465,381.142914 244.606842,373.856079 238.097366,366.751465 
	C233.176056,361.380188 228.000748,356.241608 222.938477,350.999481 
	C222.972992,342.315063 223.007507,333.630646 223.095306,324.481323 
z"/>
<path fill="#D8DCE4" opacity="1.000000" stroke="none" 
	d="
M222.565796,351.022522 
	C228.000748,356.241608 233.176056,361.380188 238.097366,366.751465 
	C244.606842,373.856079 250.917465,381.142914 257.413757,388.704407 
	C251.794678,393.555695 246.058228,398.032501 240.368408,402.567780 
	C238.973358,403.679779 237.730759,404.983002 236.392548,406.511353 
	C229.278671,408.847351 227.982300,408.360962 223.901962,402.384979 
	C214.644379,388.826569 205.361588,375.285339 196.062653,361.393311 
	C204.755234,357.714905 213.474182,354.380249 222.565796,351.022522 
z"/>
<path fill="#D8DCE4" opacity="1.000000" stroke="none" 
	d="
M258.917542,389.369049 
	C262.136444,384.976929 265.578979,380.848877 269.144348,376.397644 
	C276.999420,367.813019 284.731720,359.551575 292.769867,351.140991 
	C301.824951,354.236725 310.574158,357.481567 319.651917,360.877625 
	C315.852722,367.583130 311.869446,374.234222 307.559021,380.666077 
	C302.678864,387.948090 297.272522,394.884216 292.543549,402.258362 
	C289.540741,406.940735 286.201111,409.302582 280.282013,406.959106 
	C276.163239,403.628418 272.451996,400.318176 268.415039,396.897461 
	C265.106567,394.402344 262.123871,392.017731 258.917542,389.369049 
z"/>
<path fill="#E5966E" opacity="1.000000" stroke="none" 
	d="
M173.718414,235.029510 
	C180.372650,230.508148 186.848572,226.502792 195.390671,226.649811 
	C196.381470,231.415955 195.806992,235.519089 192.383087,239.784683 
	C186.939774,246.566147 187.493118,254.716431 192.548920,261.402130 
	C195.476379,265.273376 196.195221,268.868774 195.979980,273.643890 
	C181.686111,274.755341 170.535324,266.212006 167.744736,255.533646 
	C165.633347,247.454224 168.457825,241.116348 173.718414,235.029510 
z"/>
<path fill="#E5966E" opacity="1.000000" stroke="none" 
	d="
M319.015137,226.485031 
	C326.282349,226.814056 333.303711,228.269897 339.528259,233.092621 
	C339.869629,233.177017 340.022583,233.523956 340.026917,234.184692 
	C340.033051,245.591629 340.034821,256.337830 340.036621,267.084015 
	C334.155975,271.811890 327.578491,274.513794 319.455292,274.035339 
	C319.007507,258.356812 319.003021,242.653824 319.015137,226.485031 
z"/>
<path fill="#F0A479" opacity="1.000000" stroke="none" 
	d="
M340.345154,266.931610 
	C340.034821,256.337830 340.033051,245.591629 340.063477,234.370712 
	C350.468079,243.038589 350.684998,255.821671 340.345154,266.931610 
z"/>
<path fill="#D8DCE4" opacity="1.000000" stroke="none" 
	d="
M144.600433,381.071106 
	C142.480606,385.690063 139.912598,390.292145 137.555206,394.999664 
	C136.765396,396.576874 136.512756,398.423035 136.020416,400.533051 
	C132.366943,397.568542 128.707642,394.217285 124.948471,390.554749 
	C131.310562,387.194122 137.772552,384.144775 144.600433,381.071106 
z"/>
</svg>